<?xml version="1.0" encoding="UTF-8"?>
<!DOCTYPE svg PUBLIC "-//W3C//DTD SVG 1.1//EN" "http://www.w3.org/Graphics/SVG/1.1/DTD/svg11.dtd">
<!-- Creator: CorelDRAW -->
<svg xmlns="http://www.w3.org/2000/svg" xml:space="preserve" width="86.4306mm" height="86.4306mm" version="1.1" style="shape-rendering:geometricPrecision; text-rendering:geometricPrecision; image-rendering:optimizeQuality; fill-rule:evenodd; clip-rule:evenodd"
viewBox="0 0 8643.06 8643.06"
 xmlns:xlink="http://www.w3.org/1999/xlink"
 xmlns:xodm="http://www.corel.com/coreldraw/odm/2003">
 <defs>
  <style type="text/css">
   <![CDATA[
    .fil7 {fill:black}
    .fil3 {fill:#369CC7}
    .fil0 {fill:#8FC000}
    .fil1 {fill:#91BF00}
    .fil8 {fill:#E1296E}
    .fil6 {fill:#E3266E}
    .fil2 {fill:#FEAD00}
    .fil4 {fill:#FF6E00}
    .fil5 {fill:#FF7100}
   ]]>
  </style>
 </defs>
 <g id="Слой_x0020_1">
  <metadata id="CorelCorpID_0Corel-Layer"/>
  <path class="fil0" d="M4501.94 3313.67c16.05,68.97 39.37,123.9 52.07,201.93 30.27,185.74 36.41,400.62 2.47,589.21l-37.61 199.46c151.8,-3.39 356.03,-106.68 482.18,-186.69 52.53,-33.3 177.69,-140.12 218.05,-188.35 168.42,-201.15 332.71,-483.16 332.71,-767.96 0,-40.36 -55.74,-22.12 -99.24,-27.76 -176.71,-22.86 -445.91,11.36 -598.45,49.74 -141.5,35.56 -239.22,70.66 -352.18,130.42z"/>
  <path class="fil1" d="M4146.34 4312.73c-2.47,-111.02 -82.3,-358 -126.86,-448.87 -96.91,-197.52 -236.57,-334.75 -418.47,-445.14 -56.33,-34.22 -133.8,-65.79 -198.64,-89.22 -228.75,-82.48 -459.89,-55.52 -500.63,-75.1 0,141.88 116.52,399.84 199.74,519.92 12.98,18.73 17.64,23.04 28.79,38.95 221.86,316.44 631.47,499.46 1016.07,499.46z"/>
  <path class="fil2" d="M4459.6 3220.53l179 -75c220.28,-81.92 571.82,-145.1 814.04,-113.7 31,4.06 83.99,10.37 107.63,10.9 0,-214.17 -60.15,-499.39 -162.49,-667.24l-108.45 -170.96c-187.81,99.38 -305.92,133.28 -488.42,282.05 -144.49,117.72 -139.31,111.12 -271.63,244.82l-117.94 144.54c-11.25,13.86 -13.86,19.36 -24.59,34.68 -51.64,73.9 -44.16,43.92 -4.9,125.23 15.24,31.65 26.42,54.33 41.17,85.8 15.94,33.97 21.87,68.19 36.58,98.88z"/>
  <path class="fil3" d="M2935.6 2704.07c205.64,0 443.69,42.65 587.13,107.14 336.09,151.09 553.51,383.54 660.58,744.89 14.21,47.91 22.68,85.55 36.37,132.96 39.26,135.75 70.38,418.82 87.52,445.88 0,-103.61 10.3,-284.09 -3.56,-377.44 -22.72,-153.07 -8.57,-146.58 -50.55,-330.45 -58.28,-255.34 -123.83,-486.79 -274.75,-673.52 -70.77,-87.56 -216,-203.91 -314.89,-260.84 -86.25,-49.71 -158.78,-82.24 -258.51,-122.49 -66.75,-26.92 -226.87,-79.16 -308.47,-81 -46.36,87.6 -53.38,71.16 -96.38,191.49 -20.11,56.27 -59.44,162.74 -64.49,223.38z"/>
  <path class="fil4" d="M4417.27 1789.67c0,539.57 -143.93,969.43 -143.93,1066.8 0,57.75 62.33,-26.78 94.4,-66.46 113.84,-140.94 155.01,-197.28 317.85,-334.12 132.01,-110.91 304.06,-226.23 464.61,-288.89 31.68,-12.38 54.05,-14.99 71.41,-38.66 -22.34,-83.68 -252.17,-250.97 -330.56,-295.98 -105.9,-60.93 -349.11,-161.22 -473.78,-161.22l0 118.53z"/>
  <path class="fil5" d="M2884.8 3008.87l0 143.93c270.16,6.04 562.15,59.76 793.22,197.38 108.45,64.56 188.56,138.72 271.57,227.97 121.18,130.21 160.62,289.7 196.74,302.79 -9.17,-110.03 -89.95,-384.85 -150.7,-484.3 -92.82,-152.04 -135.54,-228.07 -295.52,-347.94 -179.81,-134.73 -468.77,-239.68 -713.85,-243.17 -58.17,-0.85 -101.46,-58.53 -101.46,203.34z"/>
  <path class="fil6" d="M3739.94 1747.33c11.08,47.52 89,186.23 115.82,239.78 33.54,67.07 302.29,713.46 307.51,776.22l16.93 0c2.23,-26.6 17.64,-87.49 24.31,-111.12 32.28,-113.92 47.77,-221.65 67.59,-338.85 42.58,-251.7 43.57,-406.5 43.57,-659.16 -174.09,0 -307.3,1.94 -468.88,56.05 -35.52,11.89 -76.8,30.1 -106.85,37.08z"/>
  <path class="fil7" d="M1758.74 4659.87l0 609.6c0,127.49 116.73,93.13 330.2,93.13 178.01,0 338.66,-179.35 338.66,-372.53 0,-126.93 -4.69,-228.03 -103.54,-328.29 -33.69,-34.15 -55.31,-53.56 -102.27,-75.5 -114.4,-53.48 -242.92,-36.48 -386.85,-36.48 -60.36,0 -76.2,49.18 -76.2,110.07zm254 567.27l-93.14 0 0 -541.87c168.6,0 347.14,4.52 347.14,270.93 0,163.06 -86.96,270.94 -254,270.94z"/>
  <path class="fil7" d="M4789.8 4829.2l0 702.73c0,61.21 27.27,93.14 84.67,93.14 94.93,0 67.73,-167.57 67.73,-304.8 45.16,30.23 63.4,67.73 143.93,67.73 375.47,0 357.09,-635 25.4,-635 -127.14,0 -99.76,15.49 -177.8,67.73 -2.29,-103.5 -143.93,-80.29 -143.93,8.47zm423.33 203.2c0,92.08 -23.38,211.67 -135.46,211.67 -132.22,0 -176,-185.35 -115.36,-293.16 71.4,-127 250.82,-65.12 250.82,81.49z"/>
  <path class="fil3" d="M2918.67 5726.67c0,97.16 163.97,83.61 211.17,93.59 77.37,16.37 169.13,49.04 210.22,103.3 31.15,41.17 12.95,69.74 -6.35,108.05 -74.29,147.39 -188.27,315 -102.2,440.55 23.32,34.08 37.96,50.38 93.56,50.38 0,-115.75 -37.71,-110.67 7.02,-221.58 46.39,-114.87 255.45,-455.72 255.45,-531.96 0,-14.21 -23.21,-79.55 -84.67,-84.66 -3.77,45.44 -33.37,92.07 -50.73,127.07 -13.09,26.35 -48.12,95.57 -67.8,109.99 -20.15,-75.49 -163.55,-135.46 -262.47,-135.46 47.77,-41.52 435.01,-181.15 495.87,-198.4 193.53,-54.93 402.06,-92.61 604.8,-98.5 73.91,-2.15 146.47,17.89 184.82,52.78 50.38,45.86 11.15,38.41 29.1,90.66 14.43,41.91 57.01,5.18 57.01,-32.81 0,-130.95 -246.41,-186.27 -372.53,-186.27 -410.6,0 -713.39,140.34 -1069.98,259.3 -89.81,29.98 -132.29,20.84 -132.29,53.97z"/>
  <path class="fil7" d="M4070.14 4626c0,34.26 26.95,61.67 43.53,83.47l168.13 221.33c-25.92,38.74 -254,332.85 -254,372.53 0,60.05 90.63,129.65 162.71,18.77l175.96 -255.83c28.26,18.91 40.99,45.22 60.86,74.61 27.41,40.5 152.15,238.65 193.14,238.65 45.12,0 93.13,-11.78 93.13,-76.2 0,-51.64 -214.1,-317.14 -245.53,-364.06 23.07,-86.4 203.2,-232.48 203.2,-330.2 0,-49.99 -56.87,-59.27 -93.13,-59.27 -48.37,0 -174.49,235.23 -211.67,262.47 -1.87,-7.02 -156.21,-262.47 -203.2,-262.47 -35.06,0 -93.13,1.45 -93.13,76.2z"/>
  <path class="fil8" d="M3172.67 2187.6c24.91,11.96 230.01,38.03 448.84,152.29 63.25,33.02 124.95,72.36 184.47,111.87l130.39 98.21c22.54,18.98 15.24,19.2 49.1,27.1 -14,-29.18 -22.68,-67.07 -35.06,-100.4l-83.47 -195.94c-67.81,-133.03 -152.37,-338.52 -228.6,-482.6 -101.67,8.47 -383.96,267.48 -465.67,389.47z"/>
  <path class="fil3" d="M4501.94 6133.06c-4.09,49.11 -49.36,93.8 -11.78,164.15 103.36,193.6 303.07,8.92 333.51,-121.82 94.79,50.17 140.72,-42.15 182.95,-104.91 9.7,-14.47 70.7,-99.42 23.53,-86.75 -19.96,5.36 -51.4,77.61 -64.06,97.01 -58.17,89.08 -144.5,147.08 -63.4,-12.59 25.69,-50.59 65.97,-125.17 12.14,-178.65 -17.36,-17.25 -32.91,-18.91 -65.76,-18.91 -1.34,60.68 -26.84,102.7 -48.15,146.62 -70.28,144.99 81.7,76.34 -75.04,263.59 -74.22,88.66 -210.04,111.55 -99.87,-116.8 40.32,-83.57 102.06,-179.53 82.52,-237.07 -8.97,-26.42 -33.94,-50.8 -57.33,-55.31 -67.77,-13.16 -18.35,61.77 -81.53,134.44l0 -25.4c-33.79,2.82 -24.97,-0.56 -40.32,27.41 -8.96,16.3 -12.88,28.36 -21.66,46.07 -27.52,55.43 -127.46,226.84 -168.91,263.88 -43.15,38.6 -52.64,8.33 -39.05,-39.02 40.57,-141.18 117.4,-196.28 40.64,-246.8 -19.65,-12.91 -26.64,-16.97 -58.56,-17.67 -1.73,77.26 -106.79,274.46 -169.41,313.83 -1.83,1.2 -19.08,10.26 -22.72,11.15 -86.92,20.92 -38.45,-113.07 -24.97,-152.62 85.83,-251.88 276.36,-336.44 276.36,-180.83 30.87,-8.22 32.25,-13.33 21.42,-53.8 -22.9,-85.37 -109.54,-96.98 -188.07,-70.52 -161.68,54.43 -313.87,307.94 -209.87,450.04 26.04,35.52 77.33,61.77 131.59,39.05 40.96,-17.14 64.17,-60.68 101,-85.37 4.9,59.06 69.6,155.86 175.82,40.36 64.63,-70.31 107.04,-167.5 128.98,-192.76zm67.73 -127l-8.46 16.93 8.46 -16.93zm-25.4 33.87l2.54 2.54c-0.17,-0.18 -3.38,-1.7 -2.54,-2.54zm-8.46 16.93l2.54 2.54c-0.18,-0.18 -3.39,-1.69 -2.54,-2.54zm-8.47 16.93l2.54 2.54c-0.18,-0.17 -3.39,-1.69 -2.54,-2.54zm-8.47 16.94l2.54 2.54c-0.17,-0.18 -3.38,-1.7 -2.54,-2.54zm-8.46 16.93l2.54 2.54c-0.18,-0.18 -3.39,-1.69 -2.54,-2.54z"/>
  <path class="fil7" d="M5450.2 5066.27c0,171.42 124.71,313.27 279.4,313.27 110.39,0 162.35,-1.48 254.46,-67.28 48.4,-34.57 55.21,-118.99 -34.33,-118.99 -45.93,0 -179.49,98.6 -281.19,18.77 -25.26,-19.83 -45.65,-54.96 -49.01,-94.97l339.27 0.6c139.98,-6 47.38,-192.93 18.24,-239.57 -149.51,-239.04 -526.84,-122.49 -526.84,188.17zm431.8 -42.33l-270.93 0c50.55,-217 192.76,-154.13 230.33,-103.33 27.65,37.39 23.07,66.78 40.6,103.33z"/>
  <path class="fil7" d="M2512.27 5066.27c0,171.42 124.71,313.27 279.4,313.27 110.39,0 162.35,-1.48 254.46,-67.28 48.4,-34.57 55.21,-118.99 -34.33,-118.99 -45.93,0 -179.49,98.6 -281.19,18.77 -25.26,-19.83 -45.69,-54.96 -49.01,-94.97l362.38 -1.69c64.31,-13.27 54.01,-65.16 41.87,-123.09 -23.53,-112.39 -120.65,-239.29 -243.38,-239.29 -99.31,0 -181.75,5.68 -254.25,101.36 -43.21,57.04 -75.95,133.42 -75.95,211.91zm431.8 -42.33l-270.93 0c50.55,-217 192.76,-154.13 230.33,-103.33 27.65,37.39 23.07,66.78 40.6,103.33z"/>
  <path class="fil7" d="M3477.47 5193.27c0,28.29 -24.94,42.4 -44.02,49.53 -86.33,32.17 -141.05,-49.53 -226.91,-49.53 -42.05,0 -95.39,92.36 19.44,149.86 225.42,112.89 470.04,-38.38 384.7,-215.3 -59.51,-123.37 -285.61,-120.47 -285.61,-197.03 0,-47.06 64.49,-56.48 123.02,-38.45 46,14.18 92.14,53.62 134.05,25.15 50.55,-34.32 27.41,-86.14 -9.84,-115.39 -90,-70.7 -286.46,-71.23 -358.95,25.44 -34.12,45.5 -49.71,117.61 -21.63,177.27 45.72,97.08 285.75,107.45 285.75,188.45z"/>
  <path class="fil7" d="M3756.87 4676.8l0 84.67c-49.53,0 -101.6,3.74 -101.6,67.73 0,67.17 62.55,67.73 101.6,67.73l0 389.47c0,134.48 152.4,111.76 152.4,16.93l0 -406.4c38.49,0 118.54,10.9 118.54,-67.73 0,-75.46 -79.17,-67.73 -118.54,-67.73 0,-121.08 16.34,-177.8 -93.13,-177.8 -36.06,0 -59.27,52.38 -59.27,93.13z"/>
  <path class="fil7" d="M6644 4676.8l0 84.67c-32.56,0 -61.73,-4.09 -82.65,18.91 -18.28,20.1 -56.2,116.55 82.65,116.55l0 389.47c0,134.48 152.4,111.76 152.4,16.93l0 -406.4c38.49,0 118.53,10.9 118.53,-67.73 0,-75.46 -79.16,-67.73 -118.53,-67.73 0,-121.08 16.34,-177.8 -93.13,-177.8 -36.06,0 -59.27,52.38 -59.27,93.13z"/>
  <path class="fil7" d="M6127.54 4829.2l0 457.2c0,109.93 114.97,119.38 144.74,51.61 44.21,-100.65 -62.9,-327.8 81.88,-417.65 71.97,-44.66 112.04,-14.22 112.04,-116.56 0,-42.54 -86.99,-77.65 -143.4,-24.87 -1.27,1.2 -2.96,3.03 -4.2,4.27 -1.23,1.23 -2.85,3.14 -4.05,4.41l-34.61 33.12c-8.33,-99.83 -152.4,-87.66 -152.4,8.47z"/>
  <path class="fil3" d="M5492.54 6277c0,124.74 130.49,168.84 289.56,-66.04 28.19,-41.59 139.03,-184.04 116.84,-230.29 -26.39,17.67 -19.48,14.14 -34.08,42.12 -39.58,75.88 -180.83,298.24 -262.26,305.01 -38.66,-165.98 436.29,-722.84 169.34,-745.07 -6.56,13.62 -20.89,86.82 -62.13,174.95 -42.82,91.61 -217.27,443.09 -217.27,519.32z"/>
  <path class="fil3" d="M5018.4 6175.4c0,276.65 278.1,289.77 489.52,-60.82 28.5,-47.24 59.86,-90.52 60.81,-133.91l-25.4 0c-13.54,58.06 -95.95,160.05 -136.66,210.46 -62.62,77.62 -145.52,153.18 -252.8,128.2 -9.1,-39.05 -8.47,-52.42 -8.47,-101.6 68.16,-5.68 128.31,-63.99 167.39,-103.54 86.68,-87.77 149.62,-243.59 61.21,-243.59 -108.48,0 -177.97,29.78 -247.82,99.31 -42.51,42.37 -107.78,126.36 -107.78,205.49zm143.93 0c6.39,-76.62 81.43,-178.08 133.21,-230.89 28.93,-29.53 31.3,-40.04 86.93,-40.04 0,103.18 -143.3,253.04 -220.14,270.93z"/>
  <path class="fil3" d="M3587.54 5921.4c0,64.91 23.14,60.89 -7.97,118.96 -17.36,32.35 -49.53,59.86 -34.36,92.71 33.23,-8.89 59.61,-75.29 67.73,-110.07 26.74,17.89 25.68,24.55 59.27,42.33 -20.04,37.89 -76.2,160.24 -76.2,211.67 0,64.74 93.52,226.06 270.54,-68.12 21.7,-36.05 38.91,-71.33 61.28,-108.06 20.07,-32.91 45.4,-74.89 49.18,-120.15 -42.48,11.32 -54.02,73.38 -98.01,147.53 -24.59,41.49 -108.86,196.53 -154.13,212.09 -95.42,32.74 35.14,-181.93 48.94,-241.09 -35.78,-53.37 -127.57,-56.41 -58.88,-185.88 21.13,-39.83 90.38,-118.92 -59.66,-118.92 -46.14,0 -67.73,123.26 -67.73,127z"/>
 </g>
</svg>
